<?xml version="1.0" encoding="UTF-8" standalone="no"?>
<!DOCTYPE svg PUBLIC "-//W3C//DTD SVG 1.1//EN" "http://www.w3.org/Graphics/SVG/1.1/DTD/svg11.dtd">
<!-- Created with Vectornator (http://vectornator.io/) -->
<svg height="100%" stroke-miterlimit="10" style="fill-rule:nonzero;clip-rule:evenodd;stroke-linecap:round;stroke-linejoin:round;" version="1.1" viewBox="0 0 37 36" width="100%" xml:space="preserve" xmlns="http://www.w3.org/2000/svg" xmlns:vectornator="http://vectornator.io" xmlns:xlink="http://www.w3.org/1999/xlink">
<defs/>
<g id="Untitled" vectornator:layerName="Untitled">
<path d="M28.5 10.8444L24.5 10.8444L24.5 9.8444C24.5 8.1904 23.154 6.8444 21.5 6.8444L15.5 6.8444C13.846 6.8444 12.5 8.1904 12.5 9.8444L12.5 10.8444L8.5 10.8444C6.846 10.8444 5.5 12.1904 5.5 13.8444L5.5 17.8444C5.5 18.7274 5.891 19.5144 6.5 20.0644L6.5 25.8444C6.5055 28.6035 8.74086 30.8389 11.5 30.8444L25.5 30.8444C28.2591 30.8389 30.4945 28.6035 30.5 25.8444L30.5 20.0644C31.109 19.5154 31.5 18.7274 31.5 17.8444L31.5 13.8444C31.5 12.1904 30.154 10.8444 28.5 10.8444ZM14.5 9.8444C14.5 9.29211 14.9477 8.8444 15.5 8.8444L21.5 8.8444C22.0523 8.8444 22.5 9.29211 22.5 9.8444L22.5 10.8444L14.5 10.8444C14.5 10.8444 14.5 9.8444 14.5 9.8444ZM7.5 13.8444C7.5 13.2921 7.94772 12.8444 8.5 12.8444L28.5 12.8444C29.0523 12.8444 29.5 13.2921 29.5 13.8444L29.5 17.8444C29.5 18.3967 29.0523 18.8444 28.5 18.8444L21.5 18.8444L21.5 17.8444C21.5 17.2921 21.0523 16.8444 20.5 16.8444L16.5 16.8444C15.9477 16.8444 15.5 17.2921 15.5 17.8444L15.5 18.8444L8.5 18.8444C7.94772 18.8444 7.5 18.3967 7.5 17.8444C7.5 17.8444 7.5 13.8444 7.5 13.8444ZM19.5 18.8444L19.5 20.8444L17.5 20.8444L17.5 18.8444L19.5 18.8444ZM28.5 25.8444C28.5 27.4984 27.154 28.8444 25.5 28.8444L11.5 28.8444C9.846 28.8444 8.5 27.4984 8.5 25.8444L8.5 20.8444L15.5 20.8444L15.5 21.8444C15.5 22.3967 15.9477 22.8444 16.5 22.8444L20.5 22.8444C21.0523 22.8444 21.5 22.3967 21.5 21.8444L21.5 20.8444L28.5 20.8444C28.5 20.8444 28.5 25.8444 28.5 25.8444Z" fill="#ffffff" fill-rule="nonzero" opacity="1" stroke="none"/>
</g>
</svg>
