<?xml version="1.0" standalone="no"?>
<!DOCTYPE svg PUBLIC "-//W3C//DTD SVG 20010904//EN"
 "http://www.w3.org/TR/2001/REC-SVG-20010904/DTD/svg10.dtd">
<svg version="1.0" xmlns="http://www.w3.org/2000/svg"
 width="2624.000000pt" height="2624.000000pt" viewBox="0 0 2624.000000 2624.000000"
 preserveAspectRatio="xMidYMid meet">
<metadata>
Created by potrace 1.14, written by Peter Selinger 2001-2017
</metadata>
<g transform="translate(0.000000,2624.000000) scale(0.100000,-0.100000)"
fill="#000000" stroke="none">
<path d="M8216 17043 c-2 -2 -30 -6 -61 -8 -58 -4 -118 -12 -165 -20 -14 -3
-41 -7 -60 -10 -19 -4 -55 -11 -80 -16 -25 -6 -56 -13 -70 -15 -167 -32 -485
-158 -665 -264 -27 -16 -76 -44 -107 -62 -32 -18 -58 -36 -58 -40 0 -5 -7 -8
-15 -8 -8 0 -15 -4 -15 -10 0 -5 -6 -10 -14 -10 -8 0 -16 -3 -18 -7 -1 -5 -37
-33 -78 -64 -181 -135 -303 -261 -508 -524 -27 -34 -102 -156 -102 -164 0 -6
-4 -11 -10 -11 -5 0 -10 -6 -10 -14 0 -8 -3 -16 -7 -18 -5 -1 -17 -21 -28 -43
-10 -22 -26 -48 -35 -59 -8 -10 -14 -20 -13 -22 1 -2 -23 -55 -53 -119 -30
-63 -54 -119 -54 -123 0 -4 -6 -19 -14 -33 -10 -21 -26 -64 -30 -89 -1 -3 -4
-9 -7 -15 -20 -33 -101 -324 -93 -337 3 -4 1 -8 -4 -8 -5 0 -9 -6 -9 -12 -1
-18 -13 -79 -19 -101 -3 -10 -8 -35 -10 -55 -4 -35 -6 -48 -17 -117 -7 -37
-15 -109 -24 -195 -13 -136 -6 -659 11 -745 2 -11 7 -45 11 -75 4 -30 9 -64
11 -75 3 -11 7 -36 10 -55 7 -45 32 -157 48 -215 35 -128 87 -285 126 -380 16
-38 140 -290 157 -320 69 -115 137 -221 144 -223 5 -2 9 -8 9 -13 0 -8 55 -83
120 -162 92 -114 241 -261 366 -362 88 -71 105 -84 137 -103 15 -9 27 -20 27
-24 0 -4 7 -8 15 -8 8 0 15 -3 15 -8 0 -4 9 -12 19 -17 11 -6 66 -38 123 -71
135 -81 240 -132 368 -182 100 -38 134 -51 145 -52 3 -1 34 -12 70 -25 36 -13
65 -21 65 -19 0 2 12 -1 28 -7 15 -6 47 -14 72 -19 25 -5 56 -12 70 -15 75
-17 164 -33 230 -40 25 -3 59 -8 75 -10 143 -22 570 -23 681 -1 11 2 45 7 75
10 30 4 70 10 89 15 42 9 48 11 58 12 14 2 27 5 67 14 22 5 47 9 55 10 8 1 22
5 30 8 8 2 49 15 90 27 165 48 328 108 470 172 30 14 62 28 70 31 68 29 374
207 390 227 3 4 28 22 55 40 56 38 73 52 151 127 116 111 132 243 44 372 -78
113 -193 155 -347 127 -47 -8 -133 -62 -203 -125 -69 -63 -175 -133 -290 -193
-58 -30 -108 -56 -112 -57 -4 -1 -25 -9 -45 -18 -21 -9 -42 -18 -48 -19 -5 -1
-46 -15 -90 -32 -100 -37 -224 -73 -305 -87 -14 -3 -47 -9 -73 -15 -50 -10
-128 -22 -162 -24 -11 -1 -24 -4 -30 -7 -13 -8 -467 -4 -525 5 -55 7 -180 27
-200 32 -69 15 -183 46 -218 58 -23 8 -46 16 -50 17 -38 8 -169 64 -272 116
-232 116 -438 278 -629 493 -17 19 -37 42 -45 50 -7 8 -31 40 -52 70 -21 30
-42 57 -46 58 -5 2 -8 9 -8 17 0 7 -7 18 -16 25 -8 8 -22 27 -30 44 -7 17 -24
47 -35 66 -99 161 -201 429 -244 640 -2 14 -9 46 -14 71 -12 59 -22 129 -26
196 -2 28 -5 55 -7 60 -2 4 -4 19 -4 33 l1 25 105 1 c58 0 111 3 116 7 6 3 14
4 17 0 8 -8 102 -7 115 1 6 3 13 3 15 -1 6 -10 122 -8 138 3 7 4 10 3 6 -2 -4
-7 225 -11 243 -4 3 1 10 1 15 0 29 -6 67 -5 71 2 3 5 10 5 16 2 10 -6 187 -9
213 -4 6 1 14 2 19 1 33 -7 76 -6 76 1 0 4 7 5 17 1 14 -6 191 -8 211 -3 4 1
12 1 17 0 29 -6 67 -5 71 2 3 5 10 5 16 2 10 -6 187 -9 213 -4 6 1 14 2 19 1
33 -7 76 -6 76 1 0 4 8 4 17 1 22 -9 117 -8 131 1 6 3 13 3 15 -1 6 -10 122
-8 138 3 7 4 10 3 7 -2 -4 -5 36 -9 93 -9 54 0 99 4 99 8 0 5 5 5 11 1 6 -4
33 -7 59 -7 26 0 53 3 59 7 6 4 11 4 11 -1 0 -9 123 -8 139 1 6 4 11 4 11 -1
0 -9 171 -10 187 0 5 4 13 4 16 0 8 -8 102 -7 115 1 6 3 13 3 15 -1 6 -10 122
-8 138 3 7 4 10 3 6 -2 -4 -7 225 -11 243 -4 3 1 10 1 15 0 29 -6 67 -5 71 2
3 5 10 5 16 2 10 -6 187 -9 213 -4 6 1 14 2 19 1 33 -7 76 -6 76 1 0 4 8 4 17
1 22 -9 117 -8 131 1 6 3 13 3 15 -1 6 -10 122 -8 138 3 7 4 10 3 6 -2 -6 -11
175 -10 192 0 6 4 11 4 11 -1 0 -8 108 -8 170 1 47 7 101 26 121 42 8 8 19 14
23 14 15 0 66 66 90 115 24 49 25 55 20 235 -4 176 -7 242 -18 320 -3 19 -7
55 -10 80 -3 25 -7 55 -10 66 -2 12 -7 37 -10 55 -5 30 -15 81 -32 159 -3 14
-11 46 -19 73 -8 26 -14 48 -14 50 0 1 -2 9 -5 17 -3 8 -13 42 -22 75 -24 87
-107 291 -161 398 -26 51 -47 94 -48 97 0 3 -9 19 -19 35 -11 17 -30 47 -43
68 -74 119 -173 260 -185 265 -5 2 -8 7 -8 11 0 26 -276 305 -390 395 -134
106 -262 196 -279 196 -6 0 -11 5 -11 11 0 5 -4 8 -9 4 -5 -3 -12 -1 -16 5 -6
10 -205 110 -285 144 -56 23 -303 106 -333 111 -12 3 -42 9 -67 15 -100 22
-248 47 -340 56 -68 7 -538 13 -544 7z m464 -628 c87 -8 112 -11 160 -20 19
-4 44 -8 55 -10 11 -1 43 -8 70 -15 28 -6 57 -13 65 -15 45 -9 215 -70 218
-77 2 -4 10 -8 18 -8 17 0 108 -42 112 -52 2 -5 11 -8 20 -8 10 0 28 -9 42
-20 14 -11 29 -20 33 -20 17 0 185 -119 276 -195 81 -68 234 -233 274 -296 11
-16 23 -29 28 -29 5 0 9 -4 9 -10 0 -5 15 -31 34 -57 85 -120 229 -423 237
-498 0 -5 4 -14 9 -20 6 -8 50 -166 66 -240 8 -41 25 -134 29 -171 3 -22 9
-63 14 -92 6 -43 5 -55 -7 -59 -7 -3 -909 -6 -2003 -7 -1441 -1 -1990 2 -1993
10 -2 6 2 42 9 80 7 38 15 88 19 112 3 24 8 47 11 52 3 5 7 21 10 37 4 32 13
68 15 68 1 0 3 7 5 15 15 74 56 198 102 310 41 99 124 263 135 268 4 2 8 9 8
15 0 12 51 90 63 95 4 2 7 9 7 15 0 7 10 24 23 40 12 15 32 39 44 55 60 76 79
99 100 119 13 12 23 26 24 30 0 4 28 32 62 60 34 29 79 68 100 87 20 19 54 48
75 63 20 15 39 31 42 34 10 13 206 137 238 150 17 8 32 17 32 21 0 5 5 8 11 8
6 0 25 6 42 14 102 46 213 87 273 101 10 2 47 11 82 20 58 14 85 19 167 30 17
3 68 7 115 11 47 4 86 7 88 9 5 4 261 -3 332 -10z"/>
<path d="M23207 17024 c-1 -1 -47 -5 -102 -8 -55 -4 -113 -9 -130 -10 -55 -7
-189 -26 -220 -33 -11 -2 -31 -6 -45 -8 -75 -12 -257 -61 -355 -95 -49 -17
-94 -32 -100 -34 -58 -17 -370 -160 -385 -177 -3 -3 -32 -20 -65 -38 -57 -32
-254 -159 -265 -171 -3 -3 -39 -32 -80 -65 -134 -107 -307 -278 -393 -388 -12
-16 -27 -34 -32 -40 -28 -31 -126 -170 -170 -242 -72 -116 -71 -114 -111 -190
-20 -38 -40 -74 -45 -80 -5 -5 -9 -17 -9 -27 0 -10 -4 -18 -10 -18 -5 0 -10
-8 -10 -18 0 -10 -6 -26 -13 -37 -8 -11 -31 -65 -51 -120 -21 -55 -42 -107
-46 -115 -4 -9 -11 -31 -15 -50 -4 -19 -10 -39 -13 -45 -4 -5 -7 -14 -8 -20
-1 -5 -12 -46 -23 -91 -23 -88 -31 -118 -36 -149 -2 -11 -8 -45 -14 -75 -17
-91 -21 -113 -26 -165 -4 -27 -8 -63 -11 -80 -9 -51 -12 -598 -3 -630 5 -16
10 -57 13 -90 3 -33 7 -71 10 -85 3 -14 8 -41 10 -60 2 -20 7 -47 10 -60 3
-14 8 -36 10 -50 12 -76 91 -345 123 -420 3 -8 7 -21 9 -28 1 -7 12 -33 23
-58 12 -24 21 -46 21 -49 0 -8 113 -234 138 -275 12 -19 28 -48 37 -65 16 -32
37 -67 45 -75 3 -3 23 -32 44 -64 21 -33 42 -64 47 -70 5 -6 37 -47 71 -91
123 -157 306 -341 454 -455 99 -77 205 -149 308 -209 109 -64 366 -191 387
-191 8 0 19 -4 25 -8 16 -15 260 -96 324 -108 14 -3 34 -8 45 -11 27 -9 45
-13 75 -17 14 -2 32 -6 40 -9 14 -5 77 -18 110 -22 8 -1 33 -5 55 -8 144 -23
250 -30 475 -30 113 0 237 3 275 7 39 4 88 9 111 11 22 2 67 8 100 14 32 6 73
13 89 16 69 12 94 17 170 36 70 17 241 69 285 86 8 4 17 7 20 8 3 1 13 5 22 9
9 4 22 9 30 10 14 2 33 11 196 88 56 26 107 48 112 48 6 0 10 4 10 8 0 5 12
14 28 21 15 7 38 20 52 29 14 9 27 17 30 17 5 0 79 44 95 57 6 5 35 25 65 45
30 20 57 39 60 42 3 3 23 18 45 33 22 15 53 39 68 52 16 14 46 39 67 56 110
90 301 294 390 417 19 26 37 50 40 53 14 14 90 132 90 140 0 6 3 10 8 10 4 0
12 9 17 19 6 11 37 68 70 127 61 112 164 332 170 365 2 11 7 25 12 32 4 6 8
17 9 22 1 6 13 44 27 85 47 140 91 324 113 475 3 22 7 51 10 65 12 72 19 218
18 415 0 223 -5 317 -24 435 -6 36 -13 83 -16 105 -3 22 -10 58 -16 80 -13 52
-18 74 -24 110 -3 17 -10 45 -16 63 -5 18 -11 39 -12 45 -2 7 -6 19 -9 27 -3
8 -11 33 -17 55 -18 60 -70 204 -93 255 -11 25 -21 47 -21 50 -2 10 -119 245
-125 250 -3 3 -17 25 -30 50 -62 113 -230 343 -341 464 -40 44 -162 164 -200
196 -14 12 -38 34 -55 49 -16 14 -66 53 -110 86 -44 33 -82 62 -85 65 -3 3
-14 10 -25 16 -11 7 -63 39 -116 72 -184 116 -422 225 -649 298 -69 22 -258
71 -305 79 -11 2 -47 9 -80 14 -33 6 -82 13 -110 17 -27 3 -61 7 -75 9 -88 12
-463 27 -473 19z m253 -615 c58 -1 109 -5 113 -7 5 -2 32 -6 61 -8 155 -9 484
-101 629 -175 20 -11 37 -17 37 -13 0 4 6 2 13 -4 6 -6 48 -29 92 -53 70 -37
225 -135 273 -174 140 -110 273 -237 362 -344 70 -84 140 -178 140 -189 0 -6
4 -12 8 -14 26 -10 217 -371 238 -448 4 -16 52 -165 62 -190 3 -8 6 -19 7 -25
0 -5 4 -21 8 -35 4 -14 9 -36 11 -50 3 -14 5 -25 7 -25 1 0 3 -9 4 -20 2 -11
8 -45 14 -75 25 -127 34 -254 34 -455 0 -163 -7 -311 -18 -358 -3 -12 -7 -38
-9 -57 -2 -19 -7 -46 -10 -60 -3 -14 -8 -36 -10 -50 -19 -103 -98 -364 -122
-402 -5 -7 -9 -18 -10 -24 -2 -12 -87 -184 -124 -249 -60 -107 -191 -293 -250
-355 -8 -9 -36 -39 -62 -68 -39 -42 -114 -110 -240 -217 -59 -50 -254 -169
-372 -227 -121 -60 -413 -167 -437 -160 -4 1 -22 -3 -40 -9 -19 -5 -50 -12
-69 -15 -19 -2 -55 -9 -80 -14 -77 -17 -178 -23 -380 -24 -238 -1 -291 4 -490
45 -52 11 -104 21 -116 23 -103 18 -551 207 -562 237 -2 5 -8 9 -13 9 -10 0
-79 43 -120 75 -14 11 -36 27 -49 35 -87 58 -324 280 -390 366 -8 11 -32 40
-52 66 -21 25 -38 51 -38 57 0 6 -4 11 -8 11 -5 0 -15 12 -23 28 -8 15 -22 36
-31 46 -10 11 -18 26 -18 33 0 7 -4 13 -10 13 -5 0 -10 6 -10 14 0 7 -7 19
-15 26 -8 7 -13 16 -10 20 3 5 1 10 -3 12 -17 6 -161 319 -177 383 -1 6 -5 17
-8 25 -17 42 -47 153 -62 230 -3 14 -9 45 -15 70 -19 95 -26 152 -35 290 -3
47 -7 95 -9 108 -3 12 -1 22 4 22 5 0 7 7 3 17 -7 19 -7 62 1 190 13 222 58
453 122 628 15 39 26 76 27 83 0 6 4 12 9 12 4 0 8 8 8 17 0 21 113 255 151
311 16 24 29 47 29 52 0 5 6 15 13 22 6 7 25 32 40 56 15 23 34 50 42 60 7 9
40 51 73 92 33 41 91 107 128 145 61 62 96 94 209 190 74 63 292 199 418 260
75 37 143 68 150 69 6 2 19 6 27 9 32 14 162 56 168 55 4 -1 14 1 22 4 30 12
135 36 180 43 14 2 41 6 60 9 70 12 117 17 200 22 47 3 86 6 87 7 1 1 25 1 55
1 29 -1 100 -3 158 -5z"/>
<path d="M2640 17003 c0 -4 -44 -8 -98 -9 -93 0 -251 -11 -282 -19 -8 -2 -35
-7 -60 -10 -40 -6 -105 -18 -165 -31 -11 -2 -30 -6 -43 -8 -12 -3 -27 -8 -32
-11 -6 -4 -21 -8 -34 -11 -36 -6 -170 -51 -239 -80 -71 -30 -329 -156 -337
-164 -3 -3 -32 -21 -65 -39 -33 -19 -62 -37 -65 -40 -3 -4 -33 -24 -67 -46
-35 -22 -63 -43 -63 -47 0 -5 -7 -8 -15 -8 -8 0 -15 -4 -15 -8 0 -4 -24 -26
-53 -47 -28 -22 -114 -101 -190 -177 -122 -121 -137 -134 -137 -110 0 15 -1
146 -3 292 l-3 265 -28 58 c-42 88 -111 141 -211 166 -51 12 -160 8 -211 -9
-81 -26 -154 -94 -191 -178 l-23 -53 0 -2640 0 -2640 21 -41 c44 -87 127 -155
213 -175 40 -9 131 -10 166 -1 19 5 42 10 51 13 25 5 90 48 119 78 27 26 67
99 77 139 3 13 6 777 8 1698 1 1490 5 1769 22 1845 2 11 6 31 9 45 53 272 217
565 435 780 88 86 193 171 274 220 22 13 42 26 45 29 3 4 28 17 55 31 28 14
52 28 53 33 2 4 8 7 12 7 5 0 48 18 95 40 47 22 98 43 113 46 15 4 32 10 37
15 28 21 357 100 475 113 231 27 503 27 690 1 212 -30 345 -63 510 -127 80
-32 222 -97 230 -107 3 -3 18 -13 35 -21 26 -13 55 -32 169 -109 99 -68 238
-208 354 -356 27 -35 92 -142 92 -152 0 -6 4 -13 8 -15 12 -5 87 -165 112
-238 12 -36 26 -74 30 -85 14 -33 22 -59 26 -83 3 -13 11 -49 19 -80 17 -63
44 -222 50 -292 2 -25 7 -83 11 -130 3 -47 6 -757 7 -1578 0 -1574 -2 -1518
42 -1603 21 -39 85 -104 125 -124 158 -82 356 -35 445 106 59 93 56 -6 56
1618 -1 1704 0 1679 -47 1966 -2 11 -6 36 -9 55 -3 19 -16 80 -30 135 -14 55
-28 111 -31 124 -3 13 -16 55 -29 93 -13 37 -21 68 -18 68 3 0 1 6 -4 13 -6 6
-23 46 -38 87 -101 267 -297 565 -521 794 -83 85 -264 236 -283 236 -5 0 -11
3 -13 8 -5 13 -91 72 -105 72 -7 0 -13 5 -13 10 0 6 -7 10 -15 10 -8 0 -15 3
-15 8 0 4 -10 12 -23 17 -12 6 -44 23 -72 37 -51 28 -73 38 -280 129 -39 17
-253 88 -281 93 -16 2 -46 10 -67 16 -20 6 -49 13 -65 15 -15 3 -34 6 -42 8
-130 32 -327 55 -522 61 -64 2 -121 7 -127 10 -6 4 -11 4 -11 -1z"/>
<path d="M11825 16985 c-91 -27 -160 -82 -202 -162 -33 -61 -53 -147 -47 -194
2 -16 6 -41 8 -56 6 -48 71 -172 119 -228 4 -5 46 -64 93 -130 75 -105 106
-149 181 -253 10 -13 111 -155 225 -315 114 -161 216 -303 226 -316 9 -13 67
-94 129 -180 62 -86 143 -198 180 -250 37 -52 70 -99 72 -105 2 -6 15 -22 28
-36 13 -14 26 -33 29 -42 3 -10 10 -18 15 -18 5 0 9 -7 9 -15 0 -8 3 -15 8
-15 4 0 18 -17 32 -38 14 -20 48 -68 76 -107 28 -38 73 -101 99 -140 27 -38
51 -72 54 -75 4 -3 24 -31 46 -63 28 -41 36 -62 30 -72 -6 -7 -34 -46 -62 -86
-29 -41 -61 -85 -72 -99 -11 -14 -42 -56 -70 -95 -27 -38 -54 -74 -58 -80 -9
-10 -157 -214 -223 -305 -103 -143 -185 -256 -192 -265 -10 -12 -275 -376
-338 -464 -25 -35 -62 -85 -82 -112 -21 -26 -38 -53 -38 -58 0 -5 -4 -11 -8
-13 -5 -2 -41 -48 -81 -103 -39 -55 -78 -109 -87 -120 -9 -11 -47 -63 -85
-115 -38 -52 -76 -103 -84 -113 -8 -9 -15 -22 -15 -27 0 -6 -4 -10 -10 -10 -5
0 -10 -5 -10 -11 0 -6 -19 -34 -42 -64 -24 -29 -61 -79 -83 -110 -22 -32 -48
-67 -57 -78 -10 -11 -18 -26 -18 -33 0 -7 -4 -14 -9 -16 -5 -2 -18 -30 -30
-63 -16 -47 -19 -79 -17 -150 2 -54 8 -91 15 -93 6 -2 11 -12 11 -21 0 -10 12
-36 26 -57 53 -79 110 -119 206 -142 57 -15 143 -21 143 -12 0 1 16 3 35 6 51
6 118 43 161 89 21 22 92 114 158 205 66 91 141 194 167 230 49 66 97 132 166
228 21 28 55 76 77 105 79 107 207 283 224 307 9 14 34 48 55 76 20 28 70 98
111 155 41 57 80 109 88 115 7 6 13 15 13 20 0 5 10 21 23 35 12 14 27 32 32
41 20 33 201 280 227 311 15 18 28 35 28 38 0 3 8 15 18 27 9 11 24 30 32 42
21 32 103 144 110 150 3 3 10 12 15 21 6 10 37 54 69 99 55 77 60 81 73 64 8
-11 42 -57 76 -104 34 -47 64 -87 67 -90 3 -3 10 -12 15 -22 8 -13 101 -144
159 -223 25 -35 164 -228 188 -263 13 -18 28 -39 33 -45 6 -7 33 -43 60 -82
27 -38 53 -71 57 -73 4 -2 8 -8 8 -13 0 -5 15 -28 33 -52 17 -24 45 -61 60
-83 77 -108 108 -150 115 -159 4 -5 86 -120 182 -255 96 -135 180 -252 187
-260 26 -33 153 -211 153 -215 0 -3 7 -13 16 -22 8 -10 61 -81 116 -158 55
-77 114 -152 132 -168 131 -115 378 -102 491 26 72 80 113 220 92 307 -4 19
-11 46 -14 60 -5 22 -96 169 -130 210 -7 8 -56 76 -108 150 -53 74 -103 143
-110 153 -8 9 -15 19 -15 22 0 3 -7 13 -15 22 -8 10 -71 97 -139 193 -69 96
-129 180 -133 185 -5 6 -31 42 -59 81 -27 39 -110 155 -184 258 -74 103 -139
195 -145 204 -5 10 -12 19 -15 22 -14 14 -64 85 -62 88 1 1 -4 10 -13 18 -8 9
-29 37 -47 62 -18 26 -36 52 -40 57 -35 42 -148 205 -148 213 0 6 -4 12 -9 14
-4 2 -56 71 -115 153 -59 83 -114 159 -122 170 -62 87 -95 131 -102 140 -33
40 -32 51 16 100 6 8 12 16 12 20 0 3 5 11 10 18 10 10 35 45 110 147 10 14
41 56 69 93 28 37 51 70 51 73 0 3 6 12 13 19 19 22 30 37 57 75 13 19 32 44
42 54 10 11 18 23 18 26 0 5 102 145 130 177 5 7 10 15 10 18 0 3 7 13 16 23
15 16 108 142 214 291 25 34 51 69 58 76 6 8 12 16 12 20 0 6 5 13 45 58 14
15 25 32 25 36 0 4 8 17 18 29 47 55 54 65 64 87 6 14 15 22 19 19 5 -3 9 1 9
9 0 8 9 25 21 38 11 13 62 81 112 150 51 70 100 137 110 150 9 13 66 92 127
174 60 83 113 155 117 160 128 163 161 235 158 350 -2 67 -7 92 -33 146 -34
71 -95 139 -151 166 -20 9 -38 18 -41 18 -3 1 -15 4 -27 9 -74 25 -212 6 -282
-38 -56 -36 -72 -54 -152 -161 -40 -55 -77 -104 -81 -110 -5 -5 -33 -44 -63
-85 -30 -41 -58 -79 -62 -85 -5 -5 -20 -26 -33 -45 -14 -19 -30 -42 -37 -50
-18 -22 -86 -115 -103 -141 -8 -12 -23 -31 -32 -41 -10 -10 -16 -18 -13 -18 3
0 -6 -12 -20 -27 -14 -15 -25 -31 -25 -35 0 -3 -6 -13 -13 -20 -7 -7 -29 -36
-48 -64 -20 -28 -41 -57 -48 -65 -9 -11 -318 -429 -416 -564 -11 -15 -30 -40
-42 -55 -13 -15 -23 -32 -23 -38 0 -6 -4 -12 -8 -14 -5 -1 -28 -30 -52 -63
-24 -33 -47 -61 -52 -63 -4 -2 -8 -8 -8 -12 0 -8 -28 -48 -118 -168 -9 -12
-22 -28 -27 -35 -6 -6 -26 -34 -45 -62 -18 -27 -36 -52 -40 -55 -3 -3 -23 -30
-45 -60 -21 -30 -40 -57 -42 -59 -4 -6 -31 27 -103 128 -106 149 -269 374
-290 401 -11 13 -20 30 -20 36 0 7 -4 14 -9 16 -4 2 -37 44 -72 93 -35 50 -67
92 -71 93 -5 2 -8 10 -8 17 0 7 -4 15 -8 17 -4 2 -35 41 -68 88 -147 207 -270
375 -276 378 -5 2 -8 8 -8 12 0 5 -23 40 -50 77 -58 79 -60 81 -139 193 -33
47 -64 90 -69 96 -5 6 -31 42 -58 80 -26 38 -79 111 -116 161 -37 51 -68 95
-68 98 0 3 -9 16 -21 28 -11 12 -36 46 -55 75 -56 84 -113 131 -186 153 -49
16 -178 18 -223 4z"/>
<path d="M15960 14715 c-93 -23 -150 -60 -196 -128 -16 -23 -33 -45 -37 -48
-5 -3 -8 -9 -8 -13 1 -7 -7 -32 -19 -62 -9 -23 -7 -143 3 -181 14 -56 63 -135
170 -276 23 -31 44 -62 78 -114 12 -18 25 -33 30 -33 5 0 9 -5 9 -10 0 -9 71
-111 90 -130 3 -3 10 -12 15 -21 6 -9 29 -43 52 -75 23 -33 57 -79 74 -104 17
-25 35 -46 40 -48 5 -2 9 -8 9 -13 0 -6 5 -15 10 -22 27 -31 130 -178 130
-185 0 -4 9 -14 20 -22 11 -8 20 -18 20 -23 0 -5 19 -34 43 -65 23 -31 50 -68
59 -82 34 -50 276 -385 291 -401 8 -9 23 -30 33 -48 10 -17 22 -31 26 -31 4 0
8 -5 8 -10 0 -9 42 -70 93 -135 43 -56 127 -177 127 -184 0 -5 4 -11 8 -13 4
-1 45 -54 89 -116 l82 -113 -61 -82 c-33 -45 -82 -110 -107 -144 -25 -34 -77
-106 -116 -159 -38 -54 -78 -106 -87 -116 -10 -10 -18 -22 -18 -28 0 -5 -4
-10 -10 -10 -5 0 -10 -5 -10 -10 0 -6 -5 -16 -10 -23 -13 -14 -207 -276 -306
-412 -123 -169 -169 -231 -176 -233 -4 -2 -8 -8 -8 -12 0 -5 -21 -38 -47 -73
-27 -35 -57 -76 -67 -91 -11 -15 -27 -36 -35 -46 -9 -10 -34 -44 -56 -75 -22
-31 -47 -65 -55 -75 -8 -10 -22 -28 -30 -40 -8 -12 -62 -86 -120 -164 -58 -78
-116 -159 -130 -179 -14 -20 -28 -37 -32 -37 -5 0 -8 -6 -8 -12 0 -7 -14 -29
-30 -48 -50 -59 -150 -200 -171 -241 -30 -56 -47 -128 -43 -187 3 -59 32 -162
45 -162 5 0 9 -5 9 -11 0 -32 111 -117 175 -134 17 -5 37 -10 45 -12 23 -6
150 -4 160 2 6 4 19 8 31 10 61 12 117 61 200 175 22 30 48 66 59 80 10 14 48
66 84 115 36 50 72 99 81 110 8 11 33 45 56 75 22 30 47 64 55 75 8 11 61 84
118 162 57 78 112 153 122 166 11 14 28 37 39 53 11 15 26 33 33 41 7 7 10 13
6 13 -4 0 2 9 13 20 12 11 30 33 39 50 10 16 22 30 26 30 4 0 8 5 8 10 0 6 4
16 10 23 27 33 64 83 150 202 52 72 100 137 107 145 10 13 337 457 379 515 26
37 95 130 114 155 11 14 25 33 33 44 12 17 24 5 138 -154 68 -95 142 -198 163
-229 22 -31 43 -57 48 -59 4 -2 8 -8 8 -13 0 -5 7 -17 15 -26 8 -10 59 -81
114 -158 56 -77 105 -145 109 -150 5 -6 26 -35 47 -65 21 -30 46 -64 56 -76
11 -11 19 -26 19 -32 0 -7 3 -12 8 -12 4 0 22 -23 41 -51 19 -29 40 -59 47
-68 10 -13 141 -193 261 -360 10 -14 32 -43 48 -65 17 -23 38 -53 47 -67 9
-14 23 -33 30 -41 7 -7 18 -21 23 -30 16 -25 178 -252 185 -258 3 -3 46 -61
94 -130 49 -69 99 -133 110 -144 35 -31 93 -65 120 -70 14 -3 30 -7 35 -11 17
-10 186 -6 186 5 0 1 8 3 18 5 35 7 107 56 141 98 37 45 89 151 79 160 -3 4 1
13 9 21 29 29 7 166 -38 237 -13 21 -24 42 -24 47 0 4 -9 14 -20 22 -11 8 -20
19 -20 24 0 5 -16 30 -35 55 -42 56 -267 369 -367 509 -40 57 -78 108 -83 115
-14 17 -158 215 -170 235 -5 9 -14 21 -18 26 -4 6 -33 45 -63 86 -31 41 -62
83 -70 93 -8 9 -14 20 -14 23 0 2 -5 10 -10 17 -12 14 -108 144 -130 177 -24
35 -88 122 -112 154 -13 16 -25 34 -27 40 -2 6 -7 13 -10 16 -4 3 -36 46 -71
95 -35 50 -68 92 -72 93 -4 2 -8 10 -8 17 0 7 -3 15 -7 17 -5 2 -24 26 -42 53
-19 28 -37 52 -40 55 -4 3 -22 28 -40 55 -19 28 -38 52 -41 55 -3 3 -13 16
-22 30 -9 14 -33 48 -53 75 -20 28 -47 66 -61 87 l-25 36 53 74 c29 40 81 111
116 158 34 47 70 96 80 109 9 13 79 108 154 210 76 102 144 195 152 206 8 11
36 49 63 85 26 36 91 124 143 195 52 72 98 132 102 133 5 2 8 10 8 17 0 7 3
15 8 17 4 2 28 32 54 68 26 36 53 72 61 80 7 8 21 28 32 45 10 16 29 41 42 55
13 14 23 28 23 32 0 3 6 13 13 20 6 7 23 29 37 48 13 19 28 40 32 45 13 15
191 257 208 282 8 12 57 79 108 148 105 142 129 183 138 240 23 134 -18 261
-109 340 -61 52 -65 55 -80 55 -7 0 -17 4 -23 10 -10 10 -79 22 -129 22 -52 0
-102 -12 -152 -37 -63 -32 -86 -54 -157 -150 -97 -130 -141 -189 -149 -200 -4
-5 -53 -73 -109 -150 -56 -77 -105 -142 -108 -145 -3 -3 -16 -21 -28 -40 -12
-19 -32 -47 -44 -62 -13 -15 -54 -71 -93 -124 -96 -134 -134 -185 -266 -364
-63 -85 -134 -183 -158 -217 -24 -35 -48 -63 -52 -63 -5 0 -9 -5 -9 -10 0 -6
-21 -39 -47 -74 -27 -35 -55 -74 -63 -86 -8 -13 -27 -38 -42 -55 -16 -18 -28
-37 -28 -43 0 -6 -3 -12 -7 -14 -5 -1 -30 -34 -58 -71 -27 -37 -71 -96 -96
-130 -25 -34 -58 -79 -73 -99 -15 -21 -30 -38 -34 -38 -4 0 -18 17 -32 38 -14
20 -33 46 -42 56 -10 11 -18 23 -18 27 0 5 -11 19 -25 33 -14 14 -25 29 -25
34 0 4 -8 17 -18 28 -10 10 -33 41 -51 68 -48 70 -157 218 -175 238 -8 9 -20
27 -27 40 -6 13 -15 25 -18 28 -4 3 -14 16 -23 30 -9 14 -77 107 -150 207 -73
101 -157 217 -187 259 -30 42 -59 81 -65 87 -6 7 -20 25 -30 42 -11 16 -23 34
-28 40 -5 5 -103 141 -218 300 -115 160 -213 295 -217 300 -5 6 -26 35 -47 65
-22 30 -43 57 -48 58 -4 2 -8 9 -8 16 0 23 -105 123 -151 144 -41 19 -98 32
-159 36 -14 1 -45 -3 -70 -9z"/>
<path d="M13936 10282 c-2 -2 -19 -4 -37 -4 -72 -1 -67 39 -67 -535 0 -285 2
-528 5 -540 4 -17 12 -23 34 -23 33 0 47 21 44 68 -1 17 3 32 9 32 8 0 8 3 1
8 -7 4 -11 76 -11 192 0 148 3 187 14 194 17 10 144 12 160 3 6 -4 13 -4 15 0
6 9 120 8 143 -1 8 -3 14 -2 14 2 0 4 28 6 62 5 34 -1 70 3 80 8 26 14 24 66
-2 74 -12 4 -119 7 -238 7 -119 0 -224 1 -232 4 -13 3 -15 35 -15 208 l0 205
82 0 c46 0 88 3 93 6 6 3 10 3 10 -2 0 -4 106 -6 236 -3 207 4 238 7 247 22 8
12 8 24 -1 42 l-12 26 -200 -1 c-111 -1 -203 0 -205 3 -2 2 -32 1 -67 -2 -35
-3 -85 -3 -111 0 -26 4 -49 4 -51 2z"/>
<path d="M41 10266 c-9 -11 -12 -145 -12 -525 0 -281 2 -519 6 -531 5 -15 13
-19 32 -15 15 2 31 9 36 14 7 7 11 84 11 193 l1 183 145 1 c161 1 194 6 260
40 58 30 79 49 117 104 41 60 50 89 57 175 13 149 -58 276 -189 341 -59 29
-62 29 -256 32 -161 2 -198 0 -208 -12z m421 -105 c102 -47 152 -134 150 -259
-2 -92 -50 -171 -133 -217 -42 -23 -75 -27 -225 -32 l-141 -5 0 266 c0 261 0
265 21 268 12 2 80 2 153 1 109 -1 140 -5 175 -22z"/>
<path d="M3500 10265 c-17 -21 -18 -1031 -1 -1063 12 -22 13 -22 351 -22 298
0 340 2 355 16 14 14 14 19 2 38 -14 21 -19 21 -321 21 l-306 0 -1 30 c0 17
-1 241 -1 498 0 397 -2 470 -15 482 -19 19 -47 19 -63 0z"/>
<path d="M10321 10261 c-25 -16 -27 -34 -5 -52 12 -10 62 -13 197 -14 l182 0
0 -495 c0 -272 4 -501 8 -507 12 -19 65 -16 75 5 5 9 8 236 8 505 -1 268 1
488 4 488 3 1 85 2 183 3 161 1 180 3 192 20 17 23 10 43 -18 52 -12 4 -198 8
-414 8 -316 1 -396 -2 -412 -13z"/>
<path d="M21795 10272 c-34 -4 -47 -14 -52 -39 -3 -17 -4 -25 -3 -68 0 -11 0
-42 0 -69 0 -28 3 -52 5 -54 3 -3 0 -11 -6 -18 -7 -8 -7 -14 1 -19 7 -4 7 -12
0 -26 -7 -12 -7 -26 -2 -36 5 -10 6 -26 3 -37 -4 -10 -4 -40 -1 -67 4 -27 4
-51 2 -54 -3 -2 -4 -39 -3 -82 1 -43 2 -85 2 -93 -2 -72 0 -124 4 -128 3 -3 0
-11 -6 -18 -7 -8 -7 -14 1 -19 7 -4 7 -12 0 -26 -7 -13 -7 -25 -1 -38 6 -10 8
-21 4 -24 -7 -8 -5 -134 3 -159 7 -24 69 -25 78 -2 3 9 6 105 6 215 l0 199
130 0 c72 0 130 -4 130 -8 0 -4 18 -36 40 -70 22 -33 40 -66 40 -72 0 -5 5
-10 10 -10 6 0 10 -7 10 -15 0 -8 5 -15 10 -15 6 0 10 -5 10 -10 0 -6 29 -55
65 -110 35 -55 61 -100 57 -100 -4 0 0 -5 8 -10 21 -14 56 -12 68 3 12 14 2
32 -118 227 -41 66 -82 133 -90 148 -8 15 -18 29 -22 30 -13 6 -9 32 4 32 21
0 118 64 118 77 0 7 4 13 10 13 13 0 54 66 69 112 16 47 20 144 9 183 -5 17
-11 37 -13 46 -6 26 -52 95 -82 123 -35 33 -116 72 -166 81 -40 8 -281 12
-332 7z m386 -114 c97 -50 139 -127 134 -246 -3 -50 -9 -70 -31 -100 -15 -20
-36 -43 -46 -50 -9 -7 -24 -19 -33 -28 -8 -8 -15 -13 -15 -10 0 3 -15 -1 -34
-9 -36 -15 -46 -16 -213 -16 l-113 1 0 245 0 246 147 -2 c141 -2 149 -3 204
-31z"/>
<path d="M7243 10258 c-19 -24 -203 -454 -203 -474 0 -7 -3 -14 -7 -16 -5 -1
-23 -41 -42 -88 -19 -47 -47 -112 -62 -145 -14 -33 -43 -100 -64 -150 -20 -49
-42 -103 -49 -118 -24 -53 3 -98 48 -81 9 4 26 27 38 53 21 47 28 64 68 159
l22 52 283 0 282 0 18 -42 c84 -203 97 -228 120 -228 13 0 28 7 35 15 14 17 4
51 -50 170 -15 33 -33 77 -41 98 -7 20 -16 37 -19 37 -4 0 -7 6 -7 13 -1 10
-24 66 -106 257 -5 14 -11 27 -12 30 -1 3 -9 23 -18 44 -10 22 -29 67 -43 100
-15 34 -34 77 -42 96 -9 19 -17 37 -17 40 -1 3 -9 23 -19 45 -10 22 -25 58
-33 80 -21 52 -32 65 -53 65 -10 0 -22 -6 -27 -12z m47 -152 c0 -7 9 -31 20
-54 11 -22 20 -48 20 -57 0 -8 5 -15 10 -15 6 0 10 -7 10 -15 0 -8 14 -47 31
-87 66 -152 123 -293 133 -324 6 -20 4 -20 -239 -20 -135 0 -245 4 -245 9 0 4
18 50 40 102 22 52 40 96 40 99 0 3 11 29 24 58 13 29 41 94 61 143 20 50 40
99 45 110 5 11 14 33 20 48 10 27 30 29 30 3z"/>
<path d="M17727 10264 c-1 -1 -20 -4 -42 -7 -50 -7 -106 -27 -176 -62 -58 -30
-173 -141 -185 -178 -3 -12 -11 -28 -17 -35 -6 -7 -19 -37 -28 -66 -79 -234
-3 -498 181 -627 58 -40 190 -98 190 -82 0 3 6 1 13 -4 23 -19 158 -20 246 -2
64 13 171 57 171 71 0 5 4 7 9 3 11 -6 151 130 151 147 0 6 6 19 13 27 19 22
54 125 65 188 9 54 8 142 -3 203 -9 46 -54 161 -71 181 -8 8 -14 19 -14 23 0
16 -88 101 -135 131 -54 34 -139 69 -195 81 -33 7 -167 13 -173 8z m188 -89
c97 -34 235 -129 235 -161 0 -7 4 -14 9 -16 11 -4 61 -103 67 -132 31 -156 10
-296 -59 -401 -53 -79 -170 -160 -262 -181 -55 -13 -183 -13 -239 0 -233 55
-379 288 -334 535 5 29 14 65 20 80 6 14 12 28 13 31 6 27 47 84 89 126 58 58
132 100 209 119 54 13 217 13 252 0z"/>
<path d="M25128 10253 c-10 -13 -13 -120 -14 -527 0 -281 2 -519 4 -528 3 -13
14 -18 42 -18 28 0 39 5 42 18 2 9 4 202 3 429 0 226 2 410 5 408 9 -6 242
-473 240 -481 -1 -4 2 -10 7 -13 5 -3 47 -84 93 -179 111 -225 127 -231 200
-72 19 41 40 78 45 82 6 4 7 8 2 8 -4 0 5 19 20 43 14 23 26 44 25 47 -2 6 59
133 67 140 3 3 7 10 8 15 1 6 49 107 107 225 l106 215 2 -440 3 -440 34 -3
c18 -2 38 1 43 6 7 7 14 101 8 127 -1 6 -1 15 0 20 5 23 3 213 -3 221 -3 6 -3
15 1 21 4 6 6 160 4 341 l-3 330 -31 11 c-22 8 -35 8 -44 0 -7 -5 -90 -166
-185 -357 -95 -191 -182 -360 -194 -377 -11 -16 -19 -31 -17 -33 5 -4 -67
-150 -76 -156 -5 -3 -51 78 -102 180 -52 102 -97 187 -102 190 -4 3 -8 13 -8
23 0 10 -9 30 -21 45 -11 14 -18 26 -14 26 3 0 -3 13 -14 29 -12 16 -21 36
-21 44 0 9 -4 18 -8 21 -11 7 -157 299 -154 309 1 4 -2 7 -8 7 -5 0 -10 6 -10
14 0 33 -61 54 -82 29z"/>
</g>
</svg>
