<?xml version="1.0" encoding="UTF-8"?><svg id="Livello_1" xmlns="http://www.w3.org/2000/svg" viewBox="0 0 36.49 10.95"><defs><style>.cls-1,.cls-2,.cls-3{fill:#fff;}.cls-2,.cls-4{stroke-width:.25px;}.cls-2,.cls-4,.cls-3{stroke-miterlimit:10;}.cls-2,.cls-3{stroke:#fff;}.cls-4{fill:#3dc0f0;stroke:#3dc0f0;}.cls-3{stroke-width:.05px;}</style></defs><path class="cls-3" d="M5.56,.53c.56,.29,.99,.71,1.31,1.27,.31,.56,.47,1.22,.47,2v3.91c0,.13-.04,.23-.12,.31-.08,.08-.19,.12-.31,.12s-.23-.04-.31-.12c-.08-.08-.12-.19-.12-.31V3.8c0-.92-.26-1.62-.78-2.11-.52-.48-1.19-.73-2.03-.73-.51,0-.98,.1-1.4,.3-.42,.2-.75,.48-1,.83-.24,.35-.36,.74-.36,1.17V7.71c0,.13-.04,.23-.12,.31-.08,.08-.18,.12-.32,.12-.13,0-.23-.04-.31-.12-.08-.08-.12-.19-.12-.31V.63C.02,.5,.07,.39,.15,.31c.08-.08,.19-.12,.31-.12,.14,0,.24,.04,.32,.12,.08,.08,.12,.18,.12,.32v.76c.33-.41,.73-.72,1.21-.95,.47-.23,.99-.34,1.56-.34,.71,0,1.34,.15,1.9,.44Z"/><path class="cls-3" d="M13.65,.53c.56,.33,.99,.8,1.3,1.38,.31,.59,.46,1.26,.46,2.02,0,.13-.04,.22-.12,.3-.08,.07-.18,.11-.3,.11h-6.08c.03,.57,.18,1.08,.45,1.53,.27,.45,.63,.8,1.09,1.05,.45,.25,.96,.38,1.52,.38,.38,0,.76-.07,1.14-.2,.38-.13,.68-.3,.91-.51,.1-.08,.2-.12,.3-.12s.19,.03,.26,.09c.11,.09,.16,.19,.16,.3,0,.1-.04,.19-.13,.28-.31,.28-.71,.51-1.21,.7-.5,.18-.97,.28-1.43,.28-.76,0-1.44-.17-2.04-.51-.59-.34-1.06-.82-1.4-1.44-.34-.61-.51-1.31-.51-2.08s.16-1.48,.47-2.1c.31-.61,.75-1.09,1.32-1.44C10.38,.2,11.03,.02,11.75,.02s1.34,.17,1.89,.5Zm-3.8,1.07c-.52,.5-.82,1.17-.92,1.99h5.64c-.07-.82-.36-1.48-.87-1.99-.51-.5-1.16-.75-1.94-.75s-1.39,.25-1.91,.75Z"/><path class="cls-2" d="M22.11,7.56c0,.11-.03,.19-.1,.27-.07,.07-.15,.11-.27,.11-.13,0-.23-.05-.29-.14l-2.35-3.27-2.4,3.29c-.07,.08-.16,.12-.28,.12-.11,0-.2-.03-.27-.1-.07-.07-.1-.15-.1-.25s.03-.19,.09-.27l2.43-3.32-2.27-3.18c-.05-.09-.08-.16-.08-.24,0-.1,.03-.18,.1-.26,.07-.07,.15-.11,.26-.11,.13,0,.23,.05,.29,.14l2.23,3.11L21.37,.35c.07-.09,.17-.14,.29-.14,.1,0,.19,.04,.26,.11,.07,.08,.1,.16,.1,.26,0,.09-.02,.16-.07,.23l-2.32,3.17,2.39,3.33c.06,.08,.09,.16,.09,.25Z"/><path class="cls-4" d="M27.65,10.44c0,.1-.03,.19-.1,.26-.06,.07-.15,.1-.26,.1-.13,0-.22-.04-.29-.13l-2.28-3.15-2.32,3.17c-.06,.08-.15,.11-.27,.11-.11,0-.19-.03-.26-.1-.06-.07-.1-.15-.1-.24s.03-.18,.09-.26l2.35-3.2-2.2-3.06c-.05-.08-.08-.16-.08-.23,0-.1,.03-.18,.1-.25,.06-.07,.15-.1,.25-.1,.13,0,.22,.04,.29,.13l2.16,2.99,2.19-2.99c.07-.09,.16-.13,.29-.13,.1,0,.18,.04,.25,.11,.06,.07,.1,.16,.1,.25,0,.08-.02,.16-.07,.22l-2.25,3.05,2.31,3.21c.06,.08,.09,.16,.09,.24Z"/><path class="cls-3" d="M30.39,7.59c-.61-.35-1.1-.83-1.45-1.45-.35-.61-.53-1.3-.53-2.05s.18-1.45,.53-2.06c.35-.61,.83-1.1,1.45-1.45,.61-.35,1.3-.53,2.06-.53s1.43,.18,2.05,.53c.61,.35,1.1,.83,1.45,1.45,.35,.61,.53,1.3,.53,2.06s-.18,1.43-.53,2.05c-.35,.61-.83,1.1-1.45,1.45-.61,.35-1.3,.53-2.05,.53s-1.45-.18-2.06-.53Zm3.67-.7c.48-.28,.86-.66,1.13-1.15,.27-.49,.41-1.04,.41-1.64s-.14-1.15-.41-1.64c-.27-.49-.65-.88-1.13-1.16-.48-.28-1.02-.43-1.61-.43s-1.13,.14-1.61,.43c-.48,.28-.86,.67-1.14,1.16-.28,.49-.42,1.04-.42,1.64s.14,1.15,.42,1.64c.28,.49,.66,.87,1.14,1.15,.48,.28,1.02,.42,1.61,.42s1.13-.14,1.61-.42Z"/><path class="cls-1" d="M.04,10.93s-.02-.02-.02-.04v-1.4s0-.03,.02-.04c.01-.01,.02-.02,.04-.02H.47c.09,0,.18,.02,.25,.06,.07,.04,.13,.1,.17,.17s.06,.16,.06,.25-.02,.18-.06,.25-.1,.13-.17,.17c-.07,.04-.16,.06-.25,.06H.14v.49s0,.03-.02,.04c-.01,.01-.02,.02-.04,.02-.02,0-.03,0-.04-.02Zm.43-.64c.07,0,.13-.02,.19-.05,.06-.03,.1-.08,.13-.13,.03-.06,.05-.12,.05-.19s-.02-.13-.05-.19c-.03-.06-.08-.1-.13-.13-.06-.03-.12-.05-.19-.05H.14v.74H.47Z"/><path class="cls-1" d="M4.86,10.93s-.02-.02-.02-.04v-1.4s0-.03,.02-.04c.01-.01,.03-.02,.04-.02,.02,0,.03,0,.04,.02,.01,.01,.02,.02,.02,.04v1.36h.83s.03,0,.04,.01c.01,0,.02,.02,.02,.04s0,.03-.02,.04c-.01,0-.03,.01-.04,.01h-.89s-.03,0-.04-.02Z"/><path class="cls-1" d="M10.76,10.89s0,.03-.02,.04c-.01,.01-.03,.02-.04,.02-.03,0-.04-.01-.05-.04l-.14-.34h-.79l-.14,.34s-.03,.04-.05,.04c-.02,0-.03,0-.04-.02-.01-.01-.02-.03-.02-.04,0,0,0-.02,0-.03l.59-1.39s.03-.04,.06-.04,.04,.01,.06,.04l.59,1.39s0,.02,0,.03Zm-1-.43h.7l-.35-.84-.35,.84Z"/><path class="cls-1" d="M15.52,9.44s.01,.02,.01,.04,0,.03-.01,.04c0,0-.02,.01-.04,.01h-.49v1.36s0,.03-.02,.04c-.01,.01-.02,.02-.04,.02s-.03,0-.04-.02c-.01-.01-.02-.02-.02-.04v-1.36h-.49s-.03,0-.04-.01c0,0-.01-.02-.01-.04s0-.03,.01-.04,.02-.01,.04-.01h1.1s.03,0,.04,.01Z"/><path class="cls-1" d="M19.25,10.93s-.02-.02-.02-.04v-1.4s0-.03,.02-.04c.01-.01,.02-.02,.04-.02h.93s.03,0,.04,.02c.01,.01,.02,.02,.02,.04,0,.02,0,.03-.02,.04s-.03,.02-.04,.02h-.87v.58h.64s.03,0,.04,.02c.01,.01,.02,.02,.02,.04s0,.03-.02,.04-.02,.02-.04,.02h-.64v.64s0,.03-.02,.04-.02,.02-.04,.02-.03,0-.04-.02Z"/><path class="cls-1" d="M24.34,10.84c-.11-.07-.2-.16-.27-.27s-.1-.24-.1-.38,.03-.27,.1-.38c.07-.11,.16-.2,.27-.27,.11-.07,.24-.1,.38-.1s.27,.03,.38,.1c.11,.07,.2,.16,.27,.27,.07,.11,.1,.24,.1,.38s-.03,.27-.1,.38-.16,.2-.27,.27c-.11,.07-.24,.1-.38,.1s-.27-.03-.38-.1Zm.71-.1c.1-.06,.17-.13,.23-.23,.06-.1,.08-.21,.08-.33s-.03-.23-.08-.33c-.06-.1-.13-.17-.23-.23-.1-.06-.21-.08-.33-.08s-.23,.03-.33,.08c-.1,.06-.17,.13-.23,.23-.06,.1-.08,.21-.08,.33s.03,.23,.08,.33c.06,.1,.13,.17,.23,.23,.1,.06,.21,.08,.33,.08s.23-.03,.33-.08Z"/><path class="cls-1" d="M31.17,10.91s0,.03-.02,.03-.03,.01-.05,.01c-.01,0-.02,0-.03,0s-.01-.01-.02-.02l-.35-.57h-.34v.54s0,.03-.02,.04c-.01,.01-.02,.02-.04,.02-.02,0-.03,0-.04-.02-.01-.01-.02-.02-.02-.04v-1.4s0-.03,.02-.04c.01-.01,.02-.02,.04-.02h.37c.09,0,.18,.02,.25,.06,.07,.04,.13,.09,.17,.16,.04,.07,.06,.15,.06,.24,0,.11-.03,.2-.09,.28-.06,.08-.14,.13-.24,.16l.33,.53s.02,.03,.02,.04Zm-.5-.67c.07,0,.13-.01,.19-.04,.06-.03,.1-.07,.13-.12,.03-.05,.05-.11,.05-.17s-.02-.13-.05-.18c-.03-.05-.07-.09-.13-.12-.06-.03-.12-.04-.19-.04h-.31v.68h.31Z"/><path class="cls-1" d="M36.45,9.45s.02,.02,.02,.04v1.4s0,.03-.02,.04c-.01,.01-.02,.02-.04,.02s-.03,0-.04-.02c-.01-.01-.02-.02-.02-.04v-1.19l-.59,1.2s-.03,.03-.05,.03c-.02,0-.04-.01-.05-.04l-.59-1.18v1.17s0,.03-.02,.04c-.01,.01-.02,.02-.04,.02s-.03,0-.04-.02c-.01-.01-.02-.02-.02-.04v-1.4s0-.03,.02-.04c.01-.01,.02-.02,.04-.02,.03,0,.04,0,.05,.03l.65,1.29,.65-1.29s.03-.03,.05-.03c.02,0,.03,0,.04,.02Z"/></svg>