<?xml version="1.0" encoding="UTF-8" standalone="no"?>
<!DOCTYPE svg PUBLIC "-//W3C//DTD SVG 1.1//EN" "http://www.w3.org/Graphics/SVG/1.1/DTD/svg11.dtd">
<!-- Created with Vectornator (http://vectornator.io/) -->
<svg height="100%" stroke-miterlimit="10" style="fill-rule:nonzero;clip-rule:evenodd;stroke-linecap:round;stroke-linejoin:round;" version="1.1" viewBox="0 0 37 36" width="100%" xml:space="preserve" xmlns="http://www.w3.org/2000/svg" xmlns:vectornator="http://vectornator.io" xmlns:xlink="http://www.w3.org/1999/xlink">
<defs/>
<g id="Untitled" vectornator:layerName="Untitled">
<path d="M32.3462 6.49814L26.8077 6.49814L26.8077 5.11352C26.8077 2.82337 24.944 0.959676 22.6538 0.959676L14.3462 0.959676C12.056 0.959676 10.1923 2.82337 10.1923 5.11352L10.1923 6.49814L4.65385 6.49814C2.36369 6.49814 0.5 8.36183 0.5 10.652L0.5 16.1904C0.5 17.4131 1.04138 18.5028 1.88462 19.2643L1.88462 27.2674C1.89223 31.0877 4.98734 34.1828 8.80769 34.1904L28.1923 34.1904C32.0127 34.1828 35.1078 31.0877 35.1154 27.2674L35.1154 19.2643C35.9586 18.5041 36.5 17.4131 36.5 16.1904L36.5 10.652C36.5 8.36183 34.6363 6.49814 32.3462 6.49814ZM12.9615 5.11352C12.9615 4.34882 13.5815 3.72891 14.3462 3.72891L22.6538 3.72891C23.4185 3.72891 24.0385 4.34882 24.0385 5.11352L24.0385 6.49814L12.9615 6.49814C12.9615 6.49814 12.9615 5.11352 12.9615 5.11352ZM3.26923 10.652C3.26923 9.88728 3.88914 9.26737 4.65385 9.26737L32.3462 9.26737C33.1109 9.26737 33.7308 9.88728 33.7308 10.652L33.7308 16.1904C33.7308 16.9551 33.1109 17.5751 32.3462 17.5751L22.6538 17.5751L22.6538 16.1904C22.6538 15.4257 22.0339 14.8058 21.2692 14.8058L15.7308 14.8058C14.9661 14.8058 14.3462 15.4257 14.3462 16.1904L14.3462 17.5751L4.65385 17.5751C3.88914 17.5751 3.26923 16.9551 3.26923 16.1904C3.26923 16.1904 3.26923 10.652 3.26923 10.652ZM19.8846 17.5751L19.8846 20.3443L17.1154 20.3443L17.1154 17.5751L19.8846 17.5751ZM32.3462 27.2674C32.3462 29.5575 30.4825 31.4212 28.1923 31.4212L8.80769 31.4212C6.51754 31.4212 4.65385 29.5575 4.65385 27.2674L4.65385 20.3443L14.3462 20.3443L14.3462 21.7289C14.3462 22.4936 14.9661 23.1135 15.7308 23.1135L21.2692 23.1135C22.0339 23.1135 22.6538 22.4936 22.6538 21.7289L22.6538 20.3443L32.3462 20.3443C32.3462 20.3443 32.3462 27.2674 32.3462 27.2674Z" fill="#ffffff" fill-rule="nonzero" opacity="1" stroke="none"/>
</g>
</svg>
