<?xml version="1.0" encoding="UTF-8"?><svg id="Livello_1" xmlns="http://www.w3.org/2000/svg" viewBox="0 0 40.8 12.24"><defs><style>.cls-1,.cls-2{stroke:#223464;}.cls-1,.cls-2,.cls-3{fill:#223464;}.cls-1,.cls-2,.cls-4{stroke-miterlimit:10;}.cls-1,.cls-4{stroke-width:.28px;}.cls-2{stroke-width:.06px;}.cls-4{fill:#3dc0f0;stroke:#3dc0f0;}</style></defs><path class="cls-2" d="M6.21,.59c.62,.33,1.11,.8,1.46,1.42,.35,.62,.53,1.37,.53,2.24v4.37c0,.14-.05,.26-.14,.35-.09,.09-.21,.14-.35,.14s-.26-.05-.35-.14c-.09-.09-.14-.21-.14-.35V4.25c0-1.03-.29-1.81-.87-2.36-.58-.54-1.34-.81-2.27-.81-.57,0-1.1,.11-1.57,.33-.47,.22-.84,.53-1.11,.93-.27,.4-.41,.83-.41,1.31v4.97c0,.14-.04,.26-.13,.35-.09,.09-.21,.14-.36,.14-.14,0-.26-.05-.35-.14-.09-.09-.14-.21-.14-.35V.71C.03,.56,.07,.44,.17,.35c.09-.09,.21-.13,.35-.13,.15,0,.27,.04,.36,.13,.09,.09,.13,.21,.13,.36v.85c.37-.46,.82-.81,1.35-1.06C2.88,.23,3.46,.11,4.09,.11c.79,0,1.5,.16,2.12,.49Z"/><path class="cls-2" d="M15.25,.59c.62,.37,1.1,.89,1.45,1.55,.35,.66,.52,1.41,.52,2.25,0,.14-.04,.25-.13,.33-.09,.08-.2,.12-.34,.12h-6.79c.03,.64,.2,1.21,.5,1.71,.3,.5,.71,.89,1.22,1.18,.51,.28,1.08,.42,1.7,.42,.42,0,.85-.07,1.27-.22,.43-.15,.76-.34,1.01-.58,.11-.09,.22-.13,.34-.13s.22,.03,.29,.1c.12,.1,.18,.21,.18,.34,0,.11-.05,.21-.15,.31-.35,.31-.8,.57-1.35,.78-.56,.21-1.09,.31-1.6,.31-.85,0-1.61-.19-2.28-.58-.66-.38-1.19-.92-1.56-1.6-.38-.69-.57-1.46-.57-2.33s.18-1.66,.53-2.34c.35-.69,.84-1.22,1.48-1.6C11.61,.22,12.33,.03,13.14,.03s1.49,.19,2.12,.56Zm-4.25,1.19c-.58,.56-.92,1.3-1.03,2.22h6.31c-.08-.92-.4-1.66-.97-2.22-.57-.56-1.3-.84-2.17-.84s-1.55,.28-2.13,.84Z"/><path class="cls-1" d="M24.72,8.45c0,.12-.04,.22-.11,.3-.07,.08-.17,.12-.3,.12-.15,0-.26-.05-.33-.15l-2.63-3.66-2.68,3.68c-.07,.09-.18,.13-.31,.13-.12,0-.22-.04-.3-.12-.07-.08-.11-.17-.11-.28s.03-.21,.1-.3l2.71-3.72-2.54-3.55c-.06-.1-.09-.18-.09-.27,0-.11,.04-.21,.11-.29,.07-.08,.17-.12,.29-.12,.15,0,.26,.05,.33,.15l2.49,3.47L23.89,.39c.08-.1,.19-.15,.33-.15,.12,0,.21,.04,.29,.13,.07,.08,.11,.18,.11,.29,0,.1-.03,.18-.08,.25l-2.59,3.54,2.67,3.73c.07,.09,.1,.18,.1,.28Z"/><path class="cls-4" d="M30.91,11.68c0,.11-.04,.21-.11,.29-.07,.08-.17,.12-.29,.12-.14,0-.25-.05-.32-.15l-2.54-3.52-2.6,3.54c-.07,.09-.17,.13-.3,.13-.12,0-.22-.04-.29-.11-.07-.07-.11-.16-.11-.27s.03-.2,.1-.29l2.63-3.58-2.46-3.42c-.06-.09-.09-.18-.09-.26,0-.11,.04-.2,.11-.28,.07-.08,.16-.12,.28-.12,.14,0,.25,.05,.32,.15l2.42,3.34,2.45-3.34c.08-.1,.18-.15,.32-.15,.11,0,.21,.04,.28,.12,.07,.08,.11,.18,.11,.28,0,.09-.02,.17-.07,.24l-2.51,3.41,2.59,3.59c.06,.09,.1,.17,.1,.27Z"/><path class="cls-2" d="M33.97,8.49c-.69-.39-1.23-.93-1.62-1.62-.39-.69-.59-1.45-.59-2.29s.2-1.62,.59-2.3c.39-.69,.93-1.23,1.62-1.62,.69-.39,1.46-.59,2.3-.59s1.6,.2,2.29,.59c.69,.39,1.23,.93,1.62,1.62,.39,.69,.59,1.46,.59,2.3s-.2,1.6-.59,2.29c-.39,.69-.93,1.23-1.62,1.62-.69,.39-1.45,.59-2.29,.59s-1.62-.2-2.3-.59Zm4.11-.78c.54-.31,.96-.74,1.26-1.29,.31-.55,.46-1.16,.46-1.84s-.15-1.29-.46-1.84c-.31-.55-.73-.98-1.26-1.3-.54-.32-1.14-.48-1.8-.48s-1.27,.16-1.8,.48c-.54,.32-.96,.75-1.27,1.3-.31,.55-.47,1.16-.47,1.84s.16,1.29,.47,1.84c.31,.55,.74,.98,1.27,1.29,.54,.31,1.14,.47,1.8,.47s1.27-.16,1.8-.47Z"/><path class="cls-3" d="M.05,12.22s-.02-.03-.02-.05v-1.57s0-.04,.02-.05c.01-.01,.03-.02,.05-.02h.43c.1,0,.2,.02,.28,.07,.08,.05,.15,.11,.19,.19s.07,.18,.07,.28-.02,.2-.07,.28-.11,.15-.19,.19c-.08,.05-.18,.07-.28,.07H.16v.54s0,.03-.02,.05c-.01,.01-.03,.02-.05,.02-.02,0-.03,0-.05-.02Zm.48-.72c.08,0,.15-.02,.21-.05,.06-.04,.11-.08,.15-.15,.04-.06,.05-.13,.05-.21s-.02-.15-.05-.21c-.04-.06-.08-.11-.15-.15-.06-.04-.13-.05-.21-.05H.16v.83h.37Z"/><path class="cls-3" d="M5.43,12.22s-.02-.03-.02-.05v-1.57s0-.03,.02-.05c.01-.01,.03-.02,.05-.02,.02,0,.04,0,.05,.02,.01,.01,.02,.03,.02,.05v1.52h.92s.04,0,.05,.02c.01,.01,.02,.03,.02,.04s0,.03-.02,.04c-.01,.01-.03,.02-.05,.02h-.99s-.03,0-.05-.02Z"/><path class="cls-3" d="M12.03,12.17s0,.03-.02,.05c-.01,.01-.03,.02-.05,.02-.03,0-.05-.01-.06-.04l-.16-.38h-.88l-.16,.38s-.03,.04-.06,.04c-.02,0-.04,0-.05-.02-.01-.01-.02-.03-.02-.05,0-.01,0-.02,0-.03l.66-1.55s.03-.05,.06-.05,.05,.02,.06,.05l.66,1.55s0,.02,0,.03Zm-1.12-.48h.78l-.39-.94-.39,.94Z"/><path class="cls-3" d="M17.35,10.56s.02,.03,.02,.04,0,.03-.02,.04c-.01,.01-.02,.02-.04,.02h-.55v1.52s0,.03-.02,.05c-.01,.01-.03,.02-.05,.02s-.03,0-.05-.02c-.01-.01-.02-.03-.02-.05v-1.52h-.55s-.03,0-.04-.02c-.01-.01-.02-.02-.02-.04s0-.03,.02-.04,.02-.02,.04-.02h1.23s.03,0,.04,.02Z"/><path class="cls-3" d="M21.52,12.22s-.02-.03-.02-.05v-1.57s0-.03,.02-.05c.01-.01,.03-.02,.05-.02h1.04s.03,0,.05,.02c.01,.01,.02,.03,.02,.05,0,.02,0,.03-.02,.05s-.03,.02-.05,.02h-.98v.65h.72s.03,0,.05,.02c.01,.01,.02,.03,.02,.05s0,.03-.02,.05-.03,.02-.05,.02h-.72v.72s0,.03-.02,.05-.03,.02-.05,.02-.03,0-.05-.02Z"/><path class="cls-3" d="M27.22,12.12c-.13-.07-.23-.17-.3-.3s-.11-.27-.11-.43,.04-.3,.11-.43c.07-.13,.17-.23,.3-.3,.13-.07,.27-.11,.43-.11s.3,.04,.43,.11c.13,.07,.23,.17,.3,.3,.07,.13,.11,.27,.11,.43s-.04,.3-.11,.43-.17,.23-.3,.3c-.13,.07-.27,.11-.43,.11s-.3-.04-.43-.11Zm.79-.11c.11-.06,.2-.15,.26-.26,.06-.11,.09-.23,.09-.37s-.03-.25-.09-.36c-.06-.11-.15-.2-.26-.26-.11-.06-.23-.09-.36-.09s-.26,.03-.37,.09c-.11,.06-.2,.15-.26,.26-.06,.11-.09,.23-.09,.36s.03,.26,.09,.37c.06,.11,.15,.2,.26,.26,.11,.06,.23,.09,.37,.09s.25-.03,.36-.09Z"/><path class="cls-3" d="M34.85,12.19s0,.03-.02,.04-.03,.01-.05,.01c-.01,0-.03,0-.03,0s-.02-.01-.02-.03l-.4-.64h-.39v.61s0,.03-.02,.05c-.01,.01-.03,.02-.05,.02-.02,0-.03,0-.05-.02-.01-.01-.02-.03-.02-.05v-1.57s0-.04,.02-.05c.01-.01,.03-.02,.05-.02h.41c.1,0,.2,.02,.28,.07,.08,.04,.15,.1,.19,.18,.05,.08,.07,.17,.07,.27,0,.12-.03,.22-.1,.31-.07,.09-.15,.15-.26,.18l.37,.6s.02,.04,.02,.05Zm-.56-.75c.08,0,.15-.02,.21-.05,.06-.03,.11-.08,.15-.13,.04-.06,.05-.12,.05-.2s-.02-.14-.05-.2c-.04-.06-.08-.1-.15-.14-.06-.03-.13-.05-.21-.05h-.35v.76h.35Z"/><path class="cls-3" d="M40.75,10.57s.02,.03,.02,.05v1.57s0,.03-.02,.05c-.01,.01-.03,.02-.05,.02s-.03,0-.05-.02c-.01-.01-.02-.03-.02-.05v-1.33l-.66,1.35s-.03,.03-.06,.03c-.03,0-.05-.01-.06-.04l-.66-1.32v1.31s0,.03-.02,.05c-.01,.01-.03,.02-.05,.02s-.03,0-.05-.02c-.01-.01-.02-.03-.02-.05v-1.57s0-.03,.02-.05c.01-.01,.03-.02,.05-.02,.03,0,.05,.01,.06,.03l.73,1.44,.72-1.44s.03-.03,.06-.03c.02,0,.03,0,.05,.02Z"/></svg>